<svg width="14" height="16" viewBox="0 0 14 16" fill="none" xmlns="http://www.w3.org/2000/svg">
<g clip-path="url(#clip0_10193_11897)">
<path d="M12.8791 5.4544C12.7863 5.5264 11.1479 6.4496 11.1479 8.5024C11.1479 10.8768 13.2327 11.7168 13.2951 11.7376C13.2855 11.7888 12.9639 12.888 12.1959 14.008C11.5111 14.9936 10.7959 15.9776 9.70793 15.9776C8.61993 15.9776 8.33993 15.3456 7.08393 15.3456C5.85993 15.3456 5.42473 15.9984 4.42953 15.9984C3.43433 15.9984 2.73993 15.0864 1.94153 13.9664C1.01673 12.6512 0.269531 10.608 0.269531 8.6688C0.269531 5.5584 2.29193 3.9088 4.28233 3.9088C5.33993 3.9088 6.22153 4.6032 6.88553 4.6032C7.51753 4.6032 8.50313 3.8672 9.70633 3.8672C10.1623 3.8672 11.8007 3.9088 12.8791 5.4544ZM9.13513 2.5504C9.63273 1.96 9.98473 1.1408 9.98473 0.3216C9.98473 0.208 9.97513 0.0928 9.95433 0C9.14473 0.0304 8.18153 0.5392 7.60073 1.2128C7.14473 1.7312 6.71913 2.5504 6.71913 3.3808C6.71913 3.5056 6.73993 3.6304 6.74953 3.6704C6.80073 3.68 6.88393 3.6912 6.96713 3.6912C7.69353 3.6912 8.60713 3.2048 9.13513 2.5504Z" fill="#E4E4E7"/>
</g>
<defs>
<clipPath id="clip0_10193_11897">
<rect width="13.024" height="16" fill="white" transform="translate(0.269531)"/>
</clipPath>
</defs>
</svg>
