<svg width="17" height="16" viewBox="0 0 17 16" fill="none" xmlns="http://www.w3.org/2000/svg">
<path d="M14.7018 12.8467C14.2326 12.6545 14.0319 12.3995 14.0513 12.019C14.0713 11.5749 13.8193 11.2496 13.6997 11.1211C13.772 10.8449 13.9832 9.88964 13.6999 9.05989C13.3954 8.17175 12.4658 6.81531 11.5067 5.48195C11.114 4.93438 11.0954 4.33918 11.074 3.64997C11.0534 2.9926 11.0302 2.24746 10.6636 1.41913C10.265 0.517197 9.46525 0 8.4692 0C7.87667 0 7.26846 0.185182 6.80042 0.508016C5.84198 1.16948 5.96867 2.61164 6.0525 3.56592C6.06399 3.6966 6.0748 3.82004 6.08109 3.92543C6.13691 4.86005 6.08613 5.35264 6.01972 5.50236C5.97675 5.60019 5.76524 5.87865 5.54139 6.17347C5.30989 6.47836 5.04743 6.82397 4.8323 7.14601C4.57561 7.53353 4.3684 8.12585 4.16801 8.69865C4.02138 9.1178 3.88289 9.51371 3.74807 9.75031C3.49254 10.2054 3.55612 10.6298 3.60921 10.826C3.51247 10.8932 3.37272 11.0255 3.25474 11.2749C3.11216 11.5791 2.82284 11.7427 2.22124 11.8583C1.94478 11.9149 1.75414 12.0311 1.65447 12.2038C1.50942 12.4552 1.58842 12.771 1.6605 12.9868C1.76699 13.3041 1.70063 13.5049 1.57998 13.8695C1.55217 13.9536 1.52064 14.0489 1.4887 14.154C1.43839 14.3198 1.45654 14.4705 1.54252 14.6021C1.76972 14.9494 2.4327 15.0719 3.1152 15.1525C3.5227 15.2008 3.96871 15.3638 4.40009 15.5215C4.82275 15.676 5.25979 15.8357 5.65706 15.8842C5.71745 15.8918 5.77725 15.8956 5.8349 15.8956C6.43472 15.8956 6.70573 15.4976 6.79166 15.3341C7.00711 15.2901 7.75019 15.1493 8.51605 15.1304C9.28069 15.1086 10.0205 15.2596 10.2301 15.3065C10.296 15.4327 10.4697 15.7207 10.7466 15.8691C10.8988 15.9523 11.1105 16 11.3274 16H11.3275C11.5592 16 11.9999 15.9452 12.3487 15.5783C12.6966 15.2096 13.5658 14.7389 14.2006 14.3953C14.3422 14.3186 14.4747 14.2468 14.5909 14.182C14.9475 13.9844 15.1421 13.7019 15.1247 13.4071C15.1102 13.1623 14.9482 12.9475 14.7018 12.8467ZM6.80823 12.7757C6.76385 12.463 6.36165 12.1529 5.89586 11.7939C5.515 11.5003 5.08332 11.1675 4.96439 10.8857C4.71862 10.3044 4.91235 9.28216 5.25014 8.75578C5.41706 8.49223 5.5534 8.09254 5.68529 7.70602C5.82766 7.28865 5.97492 6.85712 6.13959 6.66821C6.40036 6.37329 6.64136 5.79943 6.68406 5.34718C6.92826 5.58031 7.30707 5.87613 7.65703 5.87613C7.7109 5.87613 7.7632 5.8691 7.8132 5.85499C8.05262 5.78585 8.40478 5.58236 8.74535 5.38564C9.03896 5.21598 9.40104 5.00677 9.53727 4.98773C9.77087 5.32316 11.1283 8.32703 11.267 9.29171C11.3767 10.055 11.2608 10.686 11.2025 10.9331C11.1556 10.9267 11.0997 10.9215 11.0409 10.9215C10.6628 10.9215 10.5627 11.1279 10.5367 11.2511C10.4696 11.5713 10.4626 12.595 10.4618 12.8251C10.3251 12.9987 9.63375 13.8167 8.64116 13.9637C8.23686 14.0225 7.85931 14.0523 7.51906 14.0523C7.22822 14.0523 7.04262 14.0298 6.96556 14.0181L6.46677 13.4474C6.66344 13.3503 6.86006 13.1454 6.80823 12.7757ZM7.44115 3.36522C7.42557 3.37193 7.41026 3.37912 7.3952 3.38678C7.39368 3.35299 7.39016 3.31874 7.38476 3.28438C7.33031 2.97093 7.12246 2.74341 6.89065 2.74341C6.87349 2.74341 6.85623 2.74473 6.83729 2.74761C6.69938 2.77059 6.59121 2.8742 6.53193 3.02108C6.58392 2.69877 6.76653 2.46013 6.98318 2.46013C7.23761 2.46013 7.45254 2.80301 7.45254 3.20883C7.45254 3.25998 7.44881 3.31087 7.44115 3.36522ZM9.41814 3.6069C9.44143 3.53272 9.45402 3.45246 9.45402 3.36915C9.45402 3.0012 9.22058 2.71294 8.92255 2.71294C8.6313 2.71294 8.39434 3.00729 8.39434 3.36915C8.39434 3.39381 8.39555 3.41851 8.39786 3.44317C8.38243 3.43724 8.36738 3.43147 8.35269 3.42591C8.31917 3.3244 8.30222 3.21849 8.30222 3.11037C8.30222 2.67039 8.5834 2.31241 8.92911 2.31241C9.27477 2.31241 9.556 2.67039 9.556 3.11037C9.556 3.2934 9.50548 3.46809 9.41814 3.6069ZM9.16324 4.46324C9.15825 4.48549 9.14766 4.49535 9.03046 4.5563C8.97129 4.5871 8.89764 4.62545 8.80547 4.68158L8.74388 4.71888C8.49638 4.86891 7.91686 5.22034 7.75953 5.24095C7.65267 5.25533 7.58657 5.21388 7.43795 5.1129C7.40443 5.09008 7.36876 5.06584 7.33073 5.04145C7.06282 4.86566 6.89049 4.67203 6.87103 4.59633C6.95837 4.52882 7.17487 4.35985 7.28572 4.25981C7.51072 4.0506 7.73713 3.91001 7.84918 3.91001C7.85511 3.91001 7.86046 3.91043 7.86602 3.91147C7.9977 3.93471 8.32247 4.06434 8.55969 4.15898C8.66933 4.20273 8.76402 4.2405 8.83065 4.26442C9.04054 4.3365 9.14997 4.42872 9.16324 4.46324ZM11.049 14.2401C11.1674 13.706 11.3038 12.9794 11.2817 12.5511C11.2766 12.4538 11.268 12.3479 11.2597 12.2455C11.2441 12.054 11.221 11.7694 11.2448 11.685C11.2495 11.6828 11.2548 11.6809 11.2606 11.6793C11.2616 11.9242 11.3148 12.4126 11.7054 12.583C11.8218 12.6337 11.9549 12.6594 12.1008 12.6594C12.4921 12.6594 12.9263 12.4675 13.1041 12.2897C13.2088 12.1849 13.2969 12.0568 13.3586 11.9554C13.3721 11.9949 13.3803 12.0465 13.376 12.113C13.3527 12.4742 13.5283 12.9534 13.8623 13.1299L13.911 13.1555C14.0299 13.2179 14.346 13.3839 14.351 13.4625C14.351 13.4625 14.3484 13.4718 14.3307 13.4882C14.2516 13.5605 13.973 13.7028 13.7035 13.8404C13.2256 14.0844 12.6838 14.3611 12.4405 14.617C12.098 14.9775 11.7105 15.2196 11.4765 15.2196C11.4484 15.2196 11.4227 15.216 11.3999 15.2088C11.1458 15.1296 10.9366 14.763 11.049 14.2401ZM2.38738 12.8776C2.36146 12.7563 2.341 12.6605 2.36298 12.5678C2.37893 12.4991 2.71819 12.4254 2.86308 12.394C3.06678 12.3498 3.27746 12.3041 3.41521 12.2205C3.6015 12.1076 3.70238 11.8995 3.79135 11.7159C3.85577 11.5831 3.92229 11.4458 4.00145 11.4008C4.00591 11.3982 4.01273 11.3951 4.02574 11.3951C4.17404 11.3951 4.48523 11.7069 4.66453 11.9859C4.71002 12.0563 4.79427 12.1972 4.89173 12.3604C5.18325 12.8482 5.58241 13.5163 5.79089 13.7402C5.97875 13.9414 6.28285 14.3284 6.20805 14.6603C6.15328 14.9179 5.86171 15.1273 5.79293 15.1736C5.76796 15.1793 5.73707 15.1822 5.70071 15.1822C5.30171 15.1822 4.51188 14.8502 4.08753 14.6718L4.02474 14.6454C3.78778 14.5461 3.40094 14.4835 3.02686 14.423C2.7292 14.3748 2.32159 14.3088 2.25403 14.2492C2.19926 14.1878 2.26279 13.9881 2.31881 13.8119C2.35915 13.6852 2.40081 13.5543 2.42363 13.4172C2.45599 13.1986 2.41791 13.0206 2.38738 12.8776Z" fill="#E4E4E7"/>
</svg>
