<svg viewBox="0 0 512 512" xml:space="preserve" xmlns="http://www.w3.org/2000/svg"><g fill="#000000" fill-opacity="1" class="fill-4d66cc"><path d="M866.206 605.46v512h512v-512h-512z" transform="translate(-866.206 -605.46)" fill="#000000" fill-opacity="1" fill-rule="nonzero" stroke="none" class="fill-4d66cc"></path><path d="M1207.161 730.421c17.678 10.209 40.277 4.154 50.48-13.52 10.207-17.68 4.156-40.277-13.523-50.484-17.677-10.204-40.274-4.15-50.481 13.53-10.204 17.673-4.15 40.27 13.524 50.474zm-75.649 239.013c-16.254 0-31.657-3.614-45.484-10.046l-25.684 46.026c21.454 10.623 45.606 16.625 71.168 16.625 14.865 0 29.239-2.06 42.898-5.843 2.417-14.845 11.232-28.528 25.285-36.643 14.03-8.1 30.266-8.903 44.32-3.591 27.331-26.875 45.116-63.44 47.705-104.159l-52.68-.763c-4.847 55.156-51.12 98.397-107.528 98.397zm0-215.949c56.409 0 102.68 43.25 107.528 98.4l52.68-.772c-2.593-40.716-20.378-77.28-47.713-104.153-14.052 5.308-30.286 4.503-44.317-3.598-14.051-8.112-22.865-21.793-25.282-36.64a160.61 160.61 0 0 0-42.896-5.84c-25.562 0-49.712 6-71.164 16.627l25.682 46.02c13.824-6.433 29.228-10.046 45.482-10.046zM1023.539 861.46c0-36.53 18.154-68.795 45.911-88.333l-27.022-45.269c-32.346 21.614-56.41 54.651-66.405 93.35 11.677 9.516 19.137 24.008 19.137 40.255 0 16.245-7.462 30.737-19.138 40.252 9.993 38.7 34.057 71.737 66.404 93.35l27.024-45.27c-27.757-19.535-45.911-51.8-45.911-88.335zm183.627 131.036c-17.68 10.208-23.733 32.804-13.528 50.476 10.208 17.68 32.803 23.737 50.483 13.53 17.675-10.206 23.73-32.803 13.523-50.481-10.204-17.671-32.803-23.728-50.478-13.525zM943.251 824.502c-20.418 0-36.963 16.542-36.963 36.961 0 20.413 16.545 36.958 36.963 36.958 20.411 0 36.958-16.545 36.958-36.958 0-20.419-16.547-36.961-36.958-36.961" transform="translate(-866.206 -605.46)" fill="#000000" fill-opacity="1" fill-rule="nonzero" stroke="none" class="fill-4d66cc"></path></g><g fill="#ffffff" fill-opacity="1" class="fill-ffffff"><path d="M3631.219 21686.344v354.594h454.625v-354.594h-454.625zm16 16h422.625v322.594h-422.625v-322.594z" style="text-indent:0;text-align:start;line-height:normal;text-transform:none;block-progression:tb;marker:none;-inkscape-font-specification:Sans" transform="translate(-3010.64 -18255.706) scale(.8466)" font-size="medium" font-style="normal" font-variant="normal" font-weight="400" font-stretch="normal" text-decoration="none" letter-spacing="normal" word-spacing="normal" direction="ltr" writing-mode="lr-tb" text-anchor="start" baseline-shift="baseline" color="#000000" fill="#ffffff" fill-opacity="1" stroke="none" stroke-width="16" visibility="visible" display="inline" overflow="visible" enable-background="accumulate" font-family="Sans" class="fill-ffffff"></path><path d="M4004.61 21926.179c-27.694 16.49-62.488 27.494-110.622 28.451l.411 20.644c51.128-1.015 89.978-12.979 120.79-31.326l-10.58-17.769zM3711.674 21924.845l-9.552 18.383c58.236 29.969 118.967 36.783 181.903 32.766l-1.335-20.746c-60.647 3.868-116.844-2.528-171.016-30.403zM3745.877 21748.074v52.898h20.645v-52.898h-20.645zM3937.744 21748.074v52.898h20.748v-52.898h-20.748z" style="text-indent:0;text-align:start;line-height:normal;text-transform:none;block-progression:tb;marker:none;-inkscape-font-specification:Sans" transform="translate(-3010.64 -18255.706) scale(.8466)" font-size="medium" font-style="normal" font-variant="normal" font-weight="400" font-stretch="normal" text-decoration="none" letter-spacing="normal" word-spacing="normal" direction="ltr" writing-mode="lr-tb" text-anchor="start" baseline-shift="baseline" color="#000000" fill="#ffffff" fill-opacity="1" stroke="none" stroke-width="6.30000019" visibility="visible" display="inline" overflow="visible" enable-background="accumulate" font-family="Sans" class="fill-ffffff"></path><path d="M3918.537 21629.648c-56.851 67.218-106.44 155.666-111.854 259.555l-.616 10.886h80.012c-16.51 68.129-4.783 141.661 25.884 202.036l18.488-9.348c-30.437-59.925-41.157-134.42-21.364-200.084l4.006-13.35H3828.458c7.908-93.237 53.068-173.882 105.897-236.341l-15.818-13.354z" style="text-indent:0;text-align:start;line-height:normal;text-transform:none;block-progression:tb;marker:none;-inkscape-font-specification:Sans" transform="translate(-3010.64 -18255.706) scale(.8466)" font-size="medium" font-style="normal" font-variant="normal" font-weight="400" font-stretch="normal" text-decoration="none" letter-spacing="normal" word-spacing="normal" direction="ltr" writing-mode="lr-tb" text-anchor="start" baseline-shift="baseline" color="#000000" fill="#ffffff" fill-opacity="1" stroke="none" stroke-width="6.30000019" visibility="visible" display="inline" overflow="visible" enable-background="accumulate" font-family="Sans" class="fill-ffffff"></path></g></svg>