<svg width="98" height="40" viewBox="0 0 98 40" fill="none" xmlns="http://www.w3.org/2000/svg">
<path d="M0.46967 19.4697C0.176777 19.7626 0.176777 20.2374 0.46967 20.5303L5.24264 25.3033C5.53553 25.5962 6.01041 25.5962 6.3033 25.3033C6.59619 25.0104 6.59619 24.5355 6.3033 24.2426L2.06066 20L6.3033 15.7574C6.59619 15.4645 6.59619 14.9896 6.3033 14.6967C6.01041 14.4038 5.53553 14.4038 5.24264 14.6967L0.46967 19.4697ZM97.5303 20.5303C97.8232 20.2374 97.8232 19.7626 97.5303 19.4697L92.7574 14.6967C92.4645 14.4038 91.9896 14.4038 91.6967 14.6967C91.4038 14.9896 91.4038 15.4645 91.6967 15.7574L95.9393 20L91.6967 24.2426C91.4038 24.5355 91.4038 25.0104 91.6967 25.3033C91.9896 25.5962 92.4645 25.5962 92.7574 25.3033L97.5303 20.5303ZM1 20.75H97V19.25H1V20.75Z" fill="#E4E4E7"/>
</svg>
