<svg width="116" height="24" viewBox="0 0 116 24" fill="none" xmlns="http://www.w3.org/2000/svg">
<rect x="115.5" y="23.5" width="115" height="23" rx="7.5" transform="rotate(180 115.5 23.5)" fill="#00BA34" fill-opacity="0.1"/>
<rect x="115.5" y="23.5" width="115" height="23" rx="7.5" transform="rotate(180 115.5 23.5)" stroke="#00BA34"/>
<path d="M11.4697 11.4697C11.1768 11.7626 11.1768 12.2374 11.4697 12.5303L16.2426 17.3033C16.5355 17.5962 17.0104 17.5962 17.3033 17.3033C17.5962 17.0104 17.5962 16.5355 17.3033 16.2426L13.0607 12L17.3033 7.75737C17.5962 7.46447 17.5962 6.9896 17.3033 6.69671C17.0104 6.40381 16.5355 6.40381 16.2426 6.69671L11.4697 11.4697ZM104 11.25L12 11.25L12 12.75L104 12.75L104 11.25Z" fill="#00BA34"/>
</svg>
