<svg width="116" height="61" viewBox="0 0 116 61" fill="none" xmlns="http://www.w3.org/2000/svg">
<rect x="115.5" y="60.5" width="115" height="60" rx="7.5" transform="rotate(180 115.5 60.5)" fill="#00BA34" fill-opacity="0.1"/>
<rect x="115.5" y="60.5" width="115" height="60" rx="7.5" transform="rotate(180 115.5 60.5)" stroke="#00BA34"/>
<path d="M11.4697 40.4697C11.1768 40.7626 11.1768 41.2374 11.4697 41.5303L16.2426 46.3033C16.5355 46.5962 17.0104 46.5962 17.3033 46.3033C17.5962 46.0104 17.5962 45.5355 17.3033 45.2426L13.0607 41L17.3033 36.7574C17.5962 36.4645 17.5962 35.9896 17.3033 35.6967C17.0104 35.4038 16.5355 35.4038 16.2426 35.6967L11.4697 40.4697ZM104 40.25L12 40.25L12 41.75L104 41.75L104 40.25Z" fill="#00BA34"/>
<path d="M104.53 20.5303C104.823 20.2374 104.823 19.7626 104.53 19.4697L99.7574 14.6967C99.4645 14.4038 98.9896 14.4038 98.6967 14.6967C98.4038 14.9896 98.4038 15.4645 98.6967 15.7574L102.939 20L98.6967 24.2426C98.4038 24.5355 98.4038 25.0104 98.6967 25.3033C98.9896 25.5962 99.4645 25.5962 99.7574 25.3033L104.53 20.5303ZM12 20.75H104V19.25H12V20.75Z" fill="#00BA34"/>
</svg>
