<svg width="24" height="28" viewBox="0 0 24 28" fill="none" xmlns="http://www.w3.org/2000/svg">
<path d="M23.3145 6.05527L19.6574 0.455268C19.4288 -0.0018753 18.8574 -0.116161 18.4002 0.226696C18.286 0.340982 18.1717 0.340982 18.1717 0.455268C13.6002 7.19812 13.1431 7.65527 17.1431 7.54098V18.2838L7.20024 4.68384C6.7431 4.11241 6.05739 3.65527 5.25739 3.76955C3.88596 3.76955 2.85739 4.79812 2.85739 6.05527V20.5696C2.28596 20.5696 1.60024 20.5696 0.91453 20.5696C0.457387 20.5696 0.000244141 20.9124 0.000244141 21.4838C0.000244141 21.7124 0.000244141 21.8267 0.11453 21.941L3.77167 27.541C4.00024 27.9981 4.57167 28.1124 5.02882 27.7696C5.1431 27.6553 5.25739 27.6553 5.25739 27.541C9.82882 20.7981 10.286 20.4553 6.40024 20.4553V9.36955L16.5717 23.3124C17.0288 23.8838 17.6002 24.2267 18.4002 24.2267C19.6574 24.2267 20.5717 23.1981 20.5717 22.0553V7.4267C21.1431 7.4267 21.8288 7.4267 22.5145 7.4267C22.9717 7.4267 23.4288 6.96955 23.4288 6.51241C23.4288 6.28384 23.4288 6.16955 23.3145 6.05527Z" fill="#6366F1"/>
</svg>
