<svg width="94" height="28" viewBox="0 0 94 28" fill="none" xmlns="http://www.w3.org/2000/svg">
<g clip-path="url(#clip0_405_4618)">
<path d="M30.9709 12.9134C30.5138 12.4563 30.0567 12.2277 29.4852 11.9991C28.9138 11.7705 28.3424 11.6562 27.7709 11.6562C26.8567 11.6562 25.9424 11.8848 25.2567 12.342C24.5709 12.7991 23.9995 13.3705 23.5424 14.1705C23.1995 14.9705 22.9709 15.7705 22.9709 16.7991C22.9709 17.8277 23.1995 18.742 23.5424 19.4277C23.8852 20.2277 24.4567 20.7991 25.2567 21.142C25.9424 21.5991 26.8567 21.7134 27.8852 21.7134C28.6852 21.7134 29.3709 21.5991 29.9424 21.3705C30.5138 21.142 31.0852 20.7991 31.4281 20.342C31.7709 19.8848 32.1138 19.4277 32.2281 18.8562L30.0567 18.6277C29.9424 18.8562 29.8281 19.0848 29.5995 19.3134C29.3709 19.542 29.1424 19.6562 28.9138 19.7705C28.6852 19.8848 28.3424 19.8848 27.9995 19.8848C27.4281 19.8848 27.0852 19.7705 26.6281 19.542C26.2852 19.3134 25.9424 18.9705 25.7138 18.6277C25.4852 18.2848 25.3709 17.7134 25.3709 17.2563H32.3424V16.5705C32.3424 15.6562 32.2281 14.9705 31.9995 14.3991C31.7709 13.8277 31.4281 13.3705 30.9709 12.9134ZM25.3709 15.8848C25.3709 15.542 25.4852 15.1991 25.7138 14.8563C25.9424 14.5134 26.1709 14.1705 26.6281 13.942C26.9709 13.7134 27.4281 13.5991 27.8852 13.5991C28.3424 13.5991 28.6852 13.7134 29.0281 13.942C29.3709 14.1705 29.5995 14.3991 29.8281 14.742C30.0567 15.0848 30.1709 15.4277 30.1709 15.8848H25.3709Z" fill="#6366F1"/>
<path d="M38.5143 19.8834C38.4 19.8834 38.2857 19.8834 38.0571 19.8834C37.8285 19.8834 37.7143 19.8834 37.4857 19.7691C37.3714 19.6548 37.1428 19.6548 37.1428 19.4262C37.0285 19.3119 37.0285 18.9691 37.0285 18.7405V13.7119H38.9714V11.8834H37.0285V9.59766H34.6285V11.8834H33.1428V13.7119H34.6285V19.1977C34.6285 19.7691 34.7428 20.3405 35.0857 20.6834C35.3143 21.1405 35.7714 21.3691 36.2285 21.5977C36.6857 21.8262 37.2571 21.8262 37.8285 21.8262C38.1714 21.8262 38.4 21.8262 38.6285 21.7119C38.8571 21.7119 39.0857 21.5977 39.2 21.5977L38.8571 19.7691C38.7428 19.7691 38.7428 19.7691 38.5143 19.8834Z" fill="#6366F1"/>
<path d="M51.7715 11.7695C51.0858 11.7695 50.4001 11.8838 49.8286 12.2267C49.2572 12.5695 48.9144 13.0267 48.6858 13.4838H48.5715C48.3429 12.9124 48.0001 12.4552 47.5429 12.2267C47.0858 11.8838 46.5144 11.7695 45.8286 11.7695C45.1429 11.7695 44.5715 11.8838 44.1144 12.2267C43.6572 12.5695 43.3144 13.0267 43.0858 13.4838H42.9715V11.7695H40.6858V21.7124H43.0858V15.7695C43.0858 15.3124 43.2001 14.9695 43.3144 14.741C43.4287 14.3981 43.6572 14.1695 44.0001 14.0552C44.2287 13.941 44.5715 13.8267 44.9144 13.8267C45.3715 13.8267 45.8287 13.941 46.1715 14.2838C46.5144 14.6267 46.6286 14.9695 46.6286 15.541V21.7124H48.9144V15.6552C48.9144 15.0838 49.0287 14.6267 49.3715 14.2838C49.7144 13.941 50.1715 13.7124 50.7429 13.7124C51.2001 13.7124 51.6572 13.8267 52.0001 14.1695C52.3429 14.3981 52.4572 14.8552 52.4572 15.541V21.7124H54.8572V15.1981C54.8572 14.0552 54.5144 13.2552 53.9429 12.6838C53.3715 12.1124 52.6858 11.7695 51.7715 11.7695Z" fill="#6366F1"/>
<path d="M63.7726 12.4552C63.4298 12.2267 62.9726 11.9981 62.4012 11.8838C61.944 11.7695 61.4869 11.7695 60.9155 11.7695C60.2298 11.7695 59.544 11.8838 58.9726 12.1124C58.4012 12.341 57.9441 12.5695 57.4869 13.0267C57.0298 13.3695 56.8012 13.941 56.5726 14.5124L58.7441 14.8552C58.8583 14.5124 59.0869 14.2838 59.4298 13.941C59.7726 13.7124 60.2298 13.5981 60.8012 13.5981C61.3726 13.5981 61.8298 13.7124 62.0583 13.941C62.4012 14.1695 62.5155 14.6267 62.5155 15.0838C62.5155 15.3124 62.4012 15.4267 62.2869 15.541C62.1726 15.6552 61.8298 15.7695 61.4869 15.7695C61.1441 15.7695 60.6869 15.8838 60.0012 15.8838C59.5441 15.8838 59.0869 15.9981 58.6298 16.1124C58.1726 16.2267 57.7155 16.341 57.3726 16.5695C57.0298 16.7981 56.6869 17.0267 56.4583 17.4838C56.2298 17.8267 56.1155 18.2838 56.1155 18.8552C56.1155 19.541 56.2298 19.9981 56.5726 20.4552C56.9155 20.9124 57.2583 21.2552 57.8298 21.4838C58.2869 21.7124 58.9726 21.8267 59.544 21.8267C60.1155 21.8267 60.5726 21.7124 60.9155 21.5981C61.2583 21.4838 61.6012 21.2552 61.9441 21.0267C62.1726 20.7981 62.4012 20.5695 62.5155 20.2267H62.8583V21.7124H65.1441V15.1981C65.1441 14.5124 65.0298 14.0552 64.8012 13.5981C64.5726 13.0267 64.2298 12.6838 63.7726 12.4552ZM62.7441 18.1695C62.7441 18.5124 62.6298 18.8552 62.4012 19.1981C62.1726 19.541 61.9441 19.7695 61.6012 19.8838C61.2583 20.1124 60.8012 20.1124 60.3441 20.1124C59.8869 20.1124 59.4298 19.9981 59.0869 19.7695C58.7441 19.541 58.6298 19.1981 58.6298 18.8552C58.6298 18.5124 58.7441 18.2838 58.8583 18.1695C58.9726 17.941 59.2012 17.8267 59.544 17.7124C59.7726 17.5981 60.1155 17.4838 60.4583 17.4838C60.5726 17.4838 60.8012 17.4838 61.0298 17.3695C61.2583 17.3695 61.4869 17.2552 61.7155 17.2552C61.9441 17.2552 62.1726 17.141 62.2869 17.141C62.5155 17.141 62.6298 17.0267 62.6298 17.0267V18.1695H62.7441Z" fill="#6366F1"/>
<path d="M76.1157 11.8836H73.3728L69.7157 15.8836H69.4871V8.68359H67.2014V21.7122H69.4871V18.3979L70.4014 17.4836L73.4871 21.7122H76.3443L72.23 16.1122L76.1157 11.8836Z" fill="#6366F1"/>
<path d="M84.4592 12.9134C84.0021 12.4563 83.5449 12.2277 82.9735 11.9991C82.4021 11.7705 81.8307 11.6562 81.2592 11.6562C80.3449 11.6562 79.4307 11.8848 78.7449 12.342C78.0592 12.7991 77.4878 13.3705 77.0307 14.1705C76.6878 14.9705 76.4592 15.7705 76.4592 16.7991C76.4592 17.8277 76.6878 18.742 77.0307 19.4277C77.3735 20.2277 77.9449 20.7991 78.7449 21.142C79.4307 21.5991 80.3449 21.7134 81.3735 21.7134C82.1735 21.7134 82.8592 21.5991 83.4307 21.3705C84.0021 21.142 84.5735 20.7991 84.9164 20.342C85.2592 19.8848 85.6021 19.4277 85.7164 18.8562L83.5449 18.6277C83.4307 18.8562 83.3164 19.0848 83.0878 19.3134C82.8592 19.542 82.6307 19.6562 82.4021 19.7705C82.1735 19.8848 81.8307 19.8848 81.4878 19.8848C80.9164 19.8848 80.5735 19.7705 80.1164 19.542C79.7735 19.3134 79.4307 18.9705 79.2021 18.6277C78.9735 18.2848 78.8592 17.7134 78.8592 17.2563H85.8307V16.5705C85.8307 15.6562 85.7164 14.9705 85.4878 14.3991C85.2592 13.8277 84.9164 13.3705 84.4592 12.9134ZM78.8592 15.8848C78.8592 15.542 78.9735 15.1991 79.2021 14.8563C79.4307 14.5134 79.6592 14.1705 80.1164 13.942C80.4592 13.7134 80.9164 13.5991 81.3735 13.5991C81.8307 13.5991 82.1735 13.7134 82.5164 13.942C82.8592 14.1705 83.0878 14.3991 83.3164 14.742C83.5449 15.0848 83.6592 15.4277 83.6592 15.8848H78.8592Z" fill="#6366F1"/>
<path d="M92.7994 11.7695C92.6851 11.7695 92.4566 11.7695 92.3423 11.7695C91.7708 11.7695 91.1994 11.8838 90.7423 12.2267C90.2851 12.5695 89.9423 12.9124 89.828 13.4838H89.7137V11.8838H87.428V21.7124H89.828V15.9981C89.828 15.541 89.9423 15.1981 90.1708 14.8552C90.3994 14.5124 90.628 14.2838 90.9708 14.0552C91.3137 13.8267 91.6565 13.8267 92.1137 13.8267C92.3423 13.8267 92.5708 13.8267 92.6851 13.8267C92.9137 13.8267 93.028 13.8267 93.1423 13.941V11.7695C93.1423 11.7695 93.028 11.7695 92.7994 11.7695Z" fill="#6366F1"/>
<path d="M23.3145 6.05527L19.6574 0.455268C19.4288 -0.0018753 18.8574 -0.116161 18.4002 0.226696C18.286 0.340982 18.1717 0.340982 18.1717 0.455268C13.6002 7.19812 13.1431 7.65527 17.1431 7.54098V18.2838L7.20024 4.68384C6.7431 4.11241 6.05739 3.65527 5.25739 3.76955C3.88596 3.76955 2.85739 4.79812 2.85739 6.05527V20.5696C2.28596 20.5696 1.60024 20.5696 0.91453 20.5696C0.457387 20.5696 0.000244141 20.9124 0.000244141 21.4838C0.000244141 21.7124 0.000244141 21.8267 0.11453 21.941L3.77167 27.541C4.00024 27.9981 4.57167 28.1124 5.02882 27.7696C5.1431 27.6553 5.25739 27.6553 5.25739 27.541C9.82882 20.7981 10.286 20.4553 6.40024 20.4553V9.36955L16.5717 23.3124C17.0288 23.8838 17.6002 24.2267 18.4002 24.2267C19.6574 24.2267 20.5717 23.1981 20.5717 22.0553V7.4267C21.1431 7.4267 21.8288 7.4267 22.5145 7.4267C22.9717 7.4267 23.4288 6.96955 23.4288 6.51241C23.4288 6.28384 23.4288 6.16955 23.3145 6.05527Z" fill="#6366F1"/>
</g>
<defs>
<clipPath id="clip0_405_4618">
<rect width="93.2571" height="28" fill="white"/>
</clipPath>
</defs>
</svg>
