<svg width="116" height="40" viewBox="0 0 116 40" fill="none" xmlns="http://www.w3.org/2000/svg">
<rect x="115.5" y="39.5" width="115" height="39" rx="7.5" transform="rotate(180 115.5 39.5)" fill="#00BA34" fill-opacity="0.1"/>
<rect x="115.5" y="39.5" width="115" height="39" rx="7.5" transform="rotate(180 115.5 39.5)" stroke="#00BA34"/>
<path d="M104.53 20.5303C104.823 20.2374 104.823 19.7626 104.53 19.4697L99.7574 14.6967C99.4645 14.4038 98.9896 14.4038 98.6967 14.6967C98.4038 14.9896 98.4038 15.4645 98.6967 15.7574L102.939 20L98.6967 24.2426C98.4038 24.5355 98.4038 25.0104 98.6967 25.3033C98.9896 25.5962 99.4645 25.5962 99.7574 25.3033L104.53 20.5303ZM12 20.75H104V19.25H12V20.75Z" fill="#00BA34"/>
</svg>
